REM DIRINDEX 1\2,1\3,1\4,1\5
REM DIRNAME cjc004,folder01,folder02,folder03,folder04
TITLE ""
FILE "1Q_t_1347-1356.mp3" MP3
  TRACK 01 AUDIO
    TITLE "3:cjc004_4946"
    INDEX 01 00:00:00
  TRACK 02 AUDIO
    TITLE "0:"
    INDEX 01 00:01:03
  TRACK 03 AUDIO
    TITLE "4:cjc004_4947"
    INDEX 01 00:01:32
  TRACK 04 AUDIO
    TITLE "0:"
    INDEX 01 00:02:67
  TRACK 05 AUDIO
    TITLE "5:cjc004_4948"
    INDEX 01 00:03:15
  TRACK 06 AUDIO
    TITLE "0:"
    INDEX 01 00:08:30
  TRACK 07 AUDIO
    TITLE "3:cjc004_4949"
    INDEX 01 00:09:04
  TRACK 08 AUDIO
    TITLE "0:"
    INDEX 01 00:10:10
  TRACK 09 AUDIO
    TITLE "4:cjc004_4950"
    INDEX 01 00:10:39
  TRACK 10 AUDIO
    TITLE "0:"
    INDEX 01 00:11:56
  TRACK 11 AUDIO
    TITLE "5:cjc004_4951"
    INDEX 01 00:12:01
  TRACK 12 AUDIO
    TITLE "0:"
    INDEX 01 00:16:04
  TRACK 13 AUDIO
    TITLE "3:cjc004_4952"
    INDEX 01 00:16:55
  TRACK 14 AUDIO
    TITLE "0:"
    INDEX 01 00:17:61
  TRACK 15 AUDIO
    TITLE "4:cjc004_4953"
    INDEX 01 00:18:13
  TRACK 16 AUDIO
    TITLE "0:"
    INDEX 01 00:19:42
  TRACK 17 AUDIO
    TITLE "5:cjc004_4954"
    INDEX 01 00:19:65
  TRACK 18 AUDIO
    TITLE "0:"
    INDEX 01 00:24:51
  TRACK 19 AUDIO
    TITLE "3:cjc004_4955"
    INDEX 01 00:25:37
  TRACK 20 AUDIO
    TITLE "0:"
    INDEX 01 00:26:40
  TRACK 21 AUDIO
    TITLE "4:cjc004_4956"
    INDEX 01 00:26:62
  TRACK 22 AUDIO
    TITLE "0:"
    INDEX 01 00:28:13
  TRACK 23 AUDIO
    TITLE "5:cjc004_4957"
    INDEX 01 00:28:39
  TRACK 24 AUDIO
    TITLE "0:"
    INDEX 01 00:32:31
  TRACK 25 AUDIO
    TITLE "3:cjc004_4958"
    INDEX 01 00:33:11
  TRACK 26 AUDIO
    TITLE "0:"
    INDEX 01 00:34:34
  TRACK 27 AUDIO
    TITLE "4:cjc004_4959"
    INDEX 01 00:34:57
  TRACK 28 AUDIO
    TITLE "0:"
    INDEX 01 00:36:05
  TRACK 29 AUDIO
    TITLE "5:cjc004_4960"
    INDEX 01 00:36:31
  TRACK 30 AUDIO
    TITLE "0:"
    INDEX 01 00:41:24
  TRACK 31 AUDIO
    TITLE "3:cjc004_4961"
    INDEX 01 00:42:10
  TRACK 32 AUDIO
    TITLE "0:"
    INDEX 01 00:43:25
  TRACK 33 AUDIO
    TITLE "4:cjc004_4962"
    INDEX 01 00:43:52
  TRACK 34 AUDIO
    TITLE "0:"
    INDEX 01 00:44:73
  TRACK 35 AUDIO
    TITLE "5:cjc004_4963"
    INDEX 01 00:45:20
  TRACK 36 AUDIO
    TITLE "0:"
    INDEX 01 00:50:13
  TRACK 37 AUDIO
    TITLE "3:cjc004_4964"
    INDEX 01 00:50:72
  TRACK 38 AUDIO
    TITLE "0:"
    INDEX 01 00:52:16
  TRACK 39 AUDIO
    TITLE "4:cjc004_4965"
    INDEX 01 00:52:47
  TRACK 40 AUDIO
    TITLE "0:"
    INDEX 01 00:53:70
  TRACK 41 AUDIO
    TITLE "5:cjc004_4966"
    INDEX 01 00:54:19
  TRACK 42 AUDIO
    TITLE "0:"
    INDEX 01 00:58:03
  TRACK 43 AUDIO
    TITLE "3:cjc004_4967"
    INDEX 01 00:58:64
  TRACK 44 AUDIO
    TITLE "0:"
    INDEX 01 01:00:06
  TRACK 45 AUDIO
    TITLE "4:cjc004_4968"
    INDEX 01 01:00:37
  TRACK 46 AUDIO
    TITLE "0:"
    INDEX 01 01:01:50
  TRACK 47 AUDIO
    TITLE "5:cjc004_4969"
    INDEX 01 01:02:01
  TRACK 48 AUDIO
    TITLE "0:"
    INDEX 01 01:07:19
  TRACK 49 AUDIO
    TITLE "3:cjc004_4970"
    INDEX 01 01:08:03
  TRACK 50 AUDIO
    TITLE "0:"
    INDEX 01 01:09:36
  TRACK 51 AUDIO
    TITLE "4:cjc004_4971"
    INDEX 01 01:09:63
  TRACK 52 AUDIO
    TITLE "0:"
    INDEX 01 01:11:27
  TRACK 53 AUDIO
    TITLE "5:cjc004_4972"
    INDEX 01 01:11:52
  TRACK 54 AUDIO
    TITLE "0:"
    INDEX 01 01:16:24
  TRACK 55 AUDIO
    TITLE "3:cjc004_4973"
    INDEX 01 01:17:14
  TRACK 56 AUDIO
    TITLE "0:"
    INDEX 01 01:18:25
  TRACK 57 AUDIO
    TITLE "4:cjc004_4974"
    INDEX 01 01:18:53
  TRACK 58 AUDIO
    TITLE "0:"
    INDEX 01 01:20:04
  TRACK 59 AUDIO
    TITLE "5:cjc004_4975"
    INDEX 01 01:20:30
  TRACK 60 AUDIO
    TITLE "0:"
    INDEX 01 01:23:46
